<svg width="22" height="22" viewBox="0 0 22 22" fill="none" xmlns="http://www.w3.org/2000/svg">
<path fill-rule="evenodd" clip-rule="evenodd" d="M8.25717 0.342215C2.85521 1.64962 -0.784117 7.22467 0.144747 12.7695C1.62065 21.58 12.4315 25.0948 18.7139 18.8069C26.6133 10.9002 19.1423 -2.2923 8.25717 0.342215ZM13.5249 1.29077C21.0094 3.22822 23.564 12.6352 18.0919 18.1086C12.3134 23.8888 2.46931 20.6956 1.08129 12.591C-0.131895 5.5058 6.50919 -0.525148 13.5249 1.29077ZM10.6788 7.32075C10.5877 7.41155 10.5135 8.16554 10.5135 8.99615V10.5065L8.89258 10.5774C7.64337 10.6322 7.27164 10.7311 7.27164 11.0088C7.27164 11.2862 7.64217 11.3854 8.88178 11.4399L10.4922 11.5106L10.5628 13.1213C10.6173 14.3613 10.7165 14.7319 10.9938 14.7319C11.2712 14.7319 11.3704 14.3613 11.4249 13.1213L11.4955 11.5106L13.1059 11.4399C14.3455 11.3854 14.716 11.2862 14.716 11.0088C14.716 10.7314 14.3455 10.6322 13.1059 10.5776L11.4955 10.507L11.4249 8.91544C11.3598 7.45575 11.0997 6.89968 10.6788 7.32075Z" fill="white"/>
</svg>
