<svg width="20" height="20" viewBox="0 0 20 20" fill="none" xmlns="http://www.w3.org/2000/svg">
<path fill-rule="evenodd" clip-rule="evenodd" d="M6.66341 0.135389C5.16472 0.520875 5.11205 0.624005 4.7538 3.88232C4.47464 6.42212 4.34008 7.01887 3.81842 8.03035C3.48319 8.67997 3.26412 9.30055 3.3312 9.40909C3.65761 9.93735 6.62356 10.6146 8.61086 10.6146C10.5982 10.6146 13.5641 9.93735 13.8905 9.40909C13.9576 9.30055 13.7401 8.68297 13.4073 8.03696C12.8937 7.0403 12.7499 6.4087 12.4585 3.8691L12.1153 0.875923L11.4516 0.489035C10.7093 0.0560892 7.80565 -0.158381 6.66341 0.135389ZM10.6112 1.0161C11.3667 1.27463 11.3075 1.10481 11.6952 4.12042C11.8255 5.1353 11.8139 5.17375 11.436 4.97149C10.9214 4.69594 6.30035 4.69594 5.7857 4.97149C5.40782 5.17375 5.39621 5.1353 5.52657 4.12042C5.91426 1.10481 5.85499 1.27463 6.61054 1.0161C6.99482 0.884735 7.89496 0.777199 8.61086 0.777199C9.32677 0.777199 10.2269 0.884735 10.6112 1.0161ZM8.21036 2.05621C8.21036 2.45672 8.11023 2.55684 7.70973 2.55684C7.34266 2.55684 7.20909 2.66358 7.20909 2.95735C7.20909 3.25112 7.34266 3.35785 7.70973 3.35785C8.13246 3.35785 8.21036 3.45137 8.21036 3.95861C8.21036 4.4258 8.29927 4.55937 8.61086 4.55937C8.92245 4.55937 9.01137 4.4258 9.01137 3.95861C9.01137 3.45137 9.08927 3.35785 9.512 3.35785C9.87906 3.35785 10.0126 3.25112 10.0126 2.95735C10.0126 2.66358 9.87906 2.55684 9.512 2.55684C9.11149 2.55684 9.01137 2.45672 9.01137 2.05621C9.01137 1.68915 8.90463 1.55558 8.61086 1.55558C8.31709 1.55558 8.21036 1.68915 8.21036 2.05621ZM11.1753 6.50743C11.2987 8.20877 9.99621 9.96479 8.61086 9.96479C7.79904 9.96479 6.8188 9.23066 6.40087 8.3099C6.0218 7.47525 5.87521 5.96014 6.14695 5.68819C6.22365 5.6117 7.3725 5.57405 8.70017 5.60489L11.114 5.66076L11.1753 6.50743ZM5.73604 8.73944C5.89484 9.11091 5.99536 9.44433 5.95972 9.48018C5.84397 9.59572 4.18708 9.11672 4.25997 8.98856C4.29862 8.92047 4.50508 8.48412 4.71835 8.01873C5.07921 7.23194 5.11846 7.20391 5.27686 7.61823C5.37057 7.86334 5.57724 8.36777 5.73604 8.73944ZM12.9595 9.08428C12.839 9.19302 11.3261 9.54426 11.2606 9.47878C11.219 9.43692 11.3139 9.14656 11.4717 8.83336C11.6295 8.52017 11.8201 8.00832 11.8952 7.69573L12.0316 7.12741L12.5172 8.08642C12.7841 8.61388 12.9832 9.06285 12.9595 9.08428ZM5.81073 11.4677C4.05672 11.8658 3.0941 12.2615 1.89018 13.0793C0.400305 14.0912 0 14.9333 0 17.0551V18.7829L6.25789 18.73C11.6635 18.6844 12.5158 18.6363 12.5158 18.3768C12.5158 18.1179 11.708 18.069 6.6584 18.0234L0.80101 17.9703V16.7618C0.80101 16.0971 0.930774 15.3023 1.08957 14.9953C1.60162 14.0051 3.3264 12.9415 5.30729 12.3947L6.03902 12.1926L7.2147 14.6839C7.86132 16.0543 8.48971 17.1753 8.61086 17.1753C8.73201 17.1753 9.3562 16.0631 9.99781 14.7036C10.9999 12.5803 11.2284 12.2345 11.6195 12.2505C12.2931 12.2779 12.3346 11.8047 11.6809 11.55C10.7448 11.1851 7.26957 11.1365 5.81073 11.4677ZM13.803 11.9485C13.0525 12.351 12.4157 13.4005 12.4157 14.235C12.4157 14.5486 12.6784 15.4061 12.9996 16.1404C13.3208 16.8749 13.6464 17.8143 13.7231 18.2284C13.8901 19.1292 14.5111 19.9788 15.0025 19.9788C15.5897 19.9788 16.0202 19.3156 16.0202 18.411C16.0202 17.9517 16.1103 17.5758 16.2205 17.5758C16.3306 17.5758 16.4207 17.9673 16.4207 18.4459C16.4207 19.3556 16.8487 19.9788 17.4732 19.9788C17.9336 19.9788 18.5554 19.1039 18.7178 18.2284C18.7945 17.8143 19.1201 16.8749 19.4413 16.1404C20.1196 14.5898 20.1654 13.9258 19.6594 12.9824C19.0923 11.9249 18.2781 11.5968 16.2205 11.5968C14.9228 11.5968 14.286 11.6894 13.803 11.9485ZM10.2145 12.1189C10.2177 12.4055 8.74703 15.5733 8.61086 15.5733C8.47469 15.5733 7.00404 12.4055 7.00724 12.1189C7.00944 11.9225 10.2123 11.9225 10.2145 12.1189ZM16.2751 12.7697C16.9288 13.284 17.2217 13.2772 17.2217 12.7481C17.2217 12.3896 17.3048 12.3454 17.7724 12.4551C18.5208 12.631 19.2243 13.466 19.2243 14.1783C19.2243 14.5001 19.0022 15.2384 18.731 15.8192C18.4597 16.3999 18.0966 17.3932 17.9244 18.0264C17.752 18.6596 17.5363 19.1778 17.4452 19.1778C17.3539 19.1778 17.2191 18.5312 17.1456 17.7408C17.0044 16.2219 16.7936 15.7735 16.2205 15.7735C15.6473 15.7735 15.4365 16.2219 15.2953 17.7408C15.2218 18.5312 15.087 19.1778 14.9957 19.1778C14.9046 19.1778 14.6881 18.6596 14.5147 18.0264C14.3413 17.3932 13.9664 16.3667 13.6817 15.7453C13.2928 14.8968 13.1964 14.4426 13.2944 13.9204C13.5563 12.5242 15.1707 11.901 16.2751 12.7697Z" fill="#7B8899"/>
</svg>
