<svg width="20" height="25" viewBox="0 0 20 25" fill="none" xmlns="http://www.w3.org/2000/svg">
<path fill-rule="evenodd" clip-rule="evenodd" d="M0.487805 0.493609C0.0141463 0.967268 0 1.30654 0 12.2009C0 23.0953 0.0141463 23.4346 0.487805 23.9082C0.952439 24.3729 1.30073 24.396 7.80488 24.396C14.309 24.396 14.6573 24.3729 15.122 23.9082C15.5739 23.4563 15.6098 23.0953 15.6098 18.9924C15.6098 14.5978 15.6061 14.5678 15.1278 15.0004C14.6917 15.3951 14.6395 15.8109 14.579 19.3675L14.5122 23.2985H7.80488H1.09756V12.2009V1.10337H7.80488H14.5122L14.5802 4.48849C14.6476 7.83946 14.6532 7.86898 15.129 7.43849C15.558 7.05019 15.6098 6.67873 15.6098 3.99239C15.6098 -0.324196 16.2561 0.00580416 7.80488 0.00580416C1.30073 0.00580416 0.952439 0.0289749 0.487805 0.493609ZM12.9115 10.6375C8.65293 14.8721 8.59146 14.9485 8.16927 16.5082C7.88683 17.5514 7.82366 18.1709 7.98293 18.3302C8.14244 18.4897 8.77439 18.4251 9.84195 18.1407C11.4522 17.7117 11.4795 17.6897 15.7298 13.4156C19.4944 9.62971 20 9.028 20 8.33288C20 7.82117 19.79 7.33458 19.4012 6.94605C19.0127 6.55727 18.5261 6.34727 18.0144 6.34727C17.319 6.34727 16.7159 6.85434 12.9115 10.6375ZM17.6495 8.69751L18.3427 9.34019L14.602 13.0868L10.8612 16.8334L10.1298 16.1017L9.39805 15.3699L13.0495 11.7124C15.058 9.70044 16.7585 8.05458 16.8288 8.05458C16.8988 8.05458 17.268 8.34385 17.6495 8.69751Z" fill="#0ABDE3"/>
</svg>
