<svg width="20" height="24" viewBox="0 0 20 24" fill="none" xmlns="http://www.w3.org/2000/svg">
<path d="M0 22.2049H2.55814C4.95349 22.2049 5.11628 22.1816 5.11628 21.7398C5.11628 21.2979 4.95349 21.2746 3.02326 21.2746H0.930233V1.7398H10.2326V7.32119H15.814V10.3444C15.814 13.2049 15.8372 13.3677 16.2791 13.3677C16.7209 13.3677 16.7442 13.2049 16.7442 10.0421V6.73979L10.814 0.80957H0V22.2049ZM13.2558 4.41421L15.2326 6.39096H11.1628V4.41421C11.1628 3.32119 11.186 2.43747 11.2326 2.43747C11.2558 2.43747 12.1628 3.32119 13.2558 4.41421Z" fill="#7B8899"/>
<path d="M5.11628 4.64677C5.11628 5.01887 4.97674 5.22817 4.76744 5.22817C4.13953 5.22817 3.25581 6.32119 3.25581 7.04212C3.25581 8.01886 3.97674 8.80956 5.39535 9.41421C7.48837 10.2979 7.93023 11.0189 6.97674 11.9723C6.30233 12.6468 5.02326 12.6002 4.30233 11.8561C3.97674 11.5537 3.72093 11.1351 3.72093 10.9258C3.72093 10.7398 3.51163 10.577 3.25581 10.577C2.69767 10.577 2.67442 10.8328 3.16279 11.8561C3.37209 12.3212 3.86047 12.7863 4.32558 13.0189C4.83721 13.2514 5.11628 13.5537 5.11628 13.8328C5.11628 14.1351 5.27907 14.2979 5.5814 14.2979C5.93023 14.2979 6.04651 14.1351 6.04651 13.7165C6.04651 13.2747 6.16279 13.1351 6.53488 13.1351C7.25581 13.1351 8.37209 11.9026 8.37209 11.0886C8.37209 10.0654 7.65116 9.34444 5.95349 8.62351C4.23256 7.87932 3.7907 7.20491 4.53488 6.39096C5.18605 5.67003 6.23256 5.78631 6.69767 6.62351C7.06977 7.27467 7.90698 7.60026 7.90698 7.08863C7.90698 6.53049 7.30233 5.67003 6.69767 5.41421C6.25581 5.20491 6.04651 4.9491 6.04651 4.60026C6.04651 4.22817 5.90698 4.06538 5.5814 4.06538C5.23256 4.06538 5.11628 4.22817 5.11628 4.64677Z" fill="#7B8899"/>
<path d="M14.186 14.577C13.1163 14.8793 12.5581 15.3909 12.5581 16.1119C12.5581 16.5537 12.4651 16.6468 12.1628 16.5072C11.3256 16.1816 9.06977 16.1119 7.97674 16.3677C6.16279 16.8328 6.04651 17.0421 6.04651 19.6467C6.04651 22.2049 6.18605 22.4374 7.7907 22.8793C9.06977 23.2281 10.6512 23.2049 11.9302 22.8095C12.8605 22.5305 13.186 22.5305 14.1163 22.8095C15.3953 23.2049 16.9767 23.2281 18.2558 22.8793C19.9535 22.4142 20 22.2979 20 18.7165C20 15.9723 19.9535 15.484 19.6047 15.1816C18.6977 14.3677 15.9535 14.0654 14.186 14.577ZM18.6744 15.67C19.1163 16.1119 18.5116 16.4374 16.9302 16.5537C15.2558 16.6933 13.8372 16.3909 13.8372 15.9258C13.8372 15.7398 14.093 15.5305 14.4186 15.4142C15.2558 15.1816 18.3488 15.3444 18.6744 15.67ZM12.1628 17.5305C12.6047 17.9723 12 18.2979 10.4186 18.4142C8.74419 18.5537 7.32558 18.2514 7.32558 17.7863C7.32558 17.6002 7.5814 17.3909 7.90698 17.2747C8.74419 17.0421 11.8372 17.2049 12.1628 17.5305ZM16.2791 17.4374C17.1163 17.4374 18.0698 17.3677 18.4419 17.2514C18.907 17.1351 19.0698 17.1584 19.0698 17.4142C19.0698 18.1119 18.3256 18.3677 16.2791 18.3677C14.2326 18.3677 13.4884 18.1119 13.4884 17.4142C13.4884 17.1584 13.6512 17.1351 14.1395 17.2514C14.4884 17.3677 15.4419 17.4374 16.2791 17.4374ZM9.76744 19.2979C10.6047 19.2979 11.5581 19.2281 11.9302 19.1119C12.6744 18.9026 12.814 19.3677 12.1628 19.9026C11.6512 20.3444 7.88372 20.3444 7.37209 19.9026C6.72093 19.3677 6.86047 18.9026 7.62791 19.1119C7.97674 19.2281 8.93023 19.2979 9.76744 19.2979ZM16.2791 19.2979C17.1163 19.2979 18.0698 19.2281 18.4419 19.1119C18.907 18.9956 19.0698 19.0188 19.0698 19.2747C19.0698 19.9723 18.3256 20.2281 16.2791 20.2281C14.2326 20.2281 13.4884 19.9723 13.4884 19.2747C13.4884 19.0188 13.6512 18.9956 14.1395 19.1119C14.4884 19.2281 15.4419 19.2979 16.2791 19.2979ZM9.76744 21.1584C10.6047 21.1584 11.5581 21.0886 11.9302 20.9723C12.6744 20.763 12.814 21.2281 12.1628 21.763C11.6512 22.2049 7.88372 22.2049 7.37209 21.763C6.72093 21.2281 6.86047 20.763 7.62791 20.9723C7.97674 21.0886 8.93023 21.1584 9.76744 21.1584ZM16.2791 21.1584C17.1163 21.1584 18.0698 21.0886 18.4419 20.9723C18.907 20.856 19.0698 20.8793 19.0698 21.1351C19.0698 21.8328 18.3256 22.0886 16.2791 22.0886C14.2326 22.0886 13.4884 21.8328 13.4884 21.1351C13.4884 20.8793 13.6512 20.856 14.1395 20.9723C14.4884 21.0886 15.4419 21.1584 16.2791 21.1584Z" fill="#7B8899"/>
</svg>
