<svg width="20" height="20" viewBox="0 0 20 20" fill="none" xmlns="http://www.w3.org/2000/svg">
<path d="M4.9375 3.85417C2.22917 5.97917 0 7.8125 0 7.91667C0 8.25 0.395833 8.35417 0.833333 8.125C1.22917 7.91667 1.25 7.97917 1.29167 13.4792L1.35417 19.0625H18.6458L18.7083 13.4792C18.75 7.97917 18.7708 7.91667 19.1667 8.125C19.6042 8.35417 20 8.25 20 7.89583C20 7.79167 19.25 7.125 18.3333 6.41667L16.6667 5.10417L15.9375 4.47917L15.2083 3.95833C14.4792 3.4375 14.5833 3.4375 14.1667 3.125C13.8083 2.85624 13.9375 2.97917 12.1042 1.54167C11.0208 0.6875 10.0833 0 10.0208 0C9.9375 0 7.66667 1.72917 4.9375 3.85417ZM14.0208 4.08333L17.9167 7.14583V18.3333H12.9167V10.4167H7.08333V18.3333H2.08333V7.14583L6 4.10417C8.14583 2.41667 9.9375 1.04167 10 1.04167C10.0625 1.04167 11.8542 2.41667 14.0208 4.08333ZM12.0833 18.3333H7.91667V11.25H12.0833V18.3333Z" fill="#7B8899"/>
</svg>
