<svg width="177" height="33" viewBox="0 0 177 33" fill="none" xmlns="http://www.w3.org/2000/svg">
<path d="M64.1953 17.2695C64.1953 20.0977 63.4102 22.2617 61.8398 23.7617C60.2695 25.2539 58.0078 26 55.0547 26H50.2617V8.86719H55.5586C58.2852 8.86719 60.4062 9.60156 61.9219 11.0703C63.4375 12.5391 64.1953 14.6055 64.1953 17.2695ZM61.2422 17.3633C61.2422 13.2617 59.3242 11.2109 55.4883 11.2109H53.0625V23.6445H55.0547C59.1797 23.6445 61.2422 21.5508 61.2422 17.3633ZM73.2539 26.2344C71.2383 26.2344 69.6602 25.6484 68.5195 24.4766C67.3867 23.2969 66.8203 21.6758 66.8203 19.6133C66.8203 17.4961 67.3477 15.832 68.4023 14.6211C69.457 13.4102 70.9062 12.8047 72.75 12.8047C74.4609 12.8047 75.8125 13.3242 76.8047 14.3633C77.7969 15.4023 78.293 16.832 78.293 18.6523V20.1406H69.6562C69.6953 21.3984 70.0352 22.3672 70.6758 23.0469C71.3164 23.7188 72.2188 24.0547 73.3828 24.0547C74.1484 24.0547 74.8594 23.9844 75.5156 23.8438C76.1797 23.6953 76.8906 23.4531 77.6484 23.1172V25.3555C76.9766 25.6758 76.2969 25.9023 75.6094 26.0352C74.9219 26.168 74.1367 26.2344 73.2539 26.2344ZM72.75 14.8906C71.875 14.8906 71.1719 15.168 70.6406 15.7227C70.1172 16.2773 69.8047 17.0859 69.7031 18.1484H75.5859C75.5703 17.0781 75.3125 16.2695 74.8125 15.7227C74.3125 15.168 73.625 14.8906 72.75 14.8906ZM92.8242 26H90.0586V18.0312C90.0586 17.0312 89.8555 16.2852 89.4492 15.793C89.0508 15.3008 88.4141 15.0547 87.5391 15.0547C86.375 15.0547 85.5234 15.3984 84.9844 16.0859C84.4453 16.7734 84.1758 17.9258 84.1758 19.543V26H81.4219V13.0391H83.5781L83.9648 14.7383H84.1055C84.4961 14.1211 85.0508 13.6445 85.7695 13.3086C86.4883 12.9727 87.2852 12.8047 88.1602 12.8047C91.2695 12.8047 92.8242 14.3867 92.8242 17.5508V26ZM101.484 24.0078C102.156 24.0078 102.828 23.9023 103.5 23.6914V25.7656C103.195 25.8984 102.801 26.0078 102.316 26.0938C101.84 26.1875 101.344 26.2344 100.828 26.2344C98.2188 26.2344 96.9141 24.8594 96.9141 22.1094V15.125H95.1445V13.9062L97.043 12.8984L97.9805 10.1562H99.6797V13.0391H103.371V15.125H99.6797V22.0625C99.6797 22.7266 99.8438 23.2188 100.172 23.5391C100.508 23.8516 100.945 24.0078 101.484 24.0078ZM114.211 26L113.66 24.1953H113.566C112.941 24.9844 112.312 25.5234 111.68 25.8125C111.047 26.0938 110.234 26.2344 109.242 26.2344C107.969 26.2344 106.973 25.8906 106.254 25.2031C105.543 24.5156 105.188 23.543 105.188 22.2852C105.188 20.9492 105.684 19.9414 106.676 19.2617C107.668 18.582 109.18 18.2109 111.211 18.1484L113.449 18.0781V17.3867C113.449 16.5586 113.254 15.9414 112.863 15.5352C112.48 15.1211 111.883 14.9141 111.07 14.9141C110.406 14.9141 109.77 15.0117 109.16 15.207C108.551 15.4023 107.965 15.6328 107.402 15.8984L106.512 13.9297C107.215 13.5625 107.984 13.2852 108.82 13.0977C109.656 12.9023 110.445 12.8047 111.188 12.8047C112.836 12.8047 114.078 13.1641 114.914 13.8828C115.758 14.6016 116.18 15.7305 116.18 17.2695V26H114.211ZM110.109 24.125C111.109 24.125 111.91 23.8477 112.512 23.293C113.121 22.7305 113.426 21.9453 113.426 20.9375V19.8125L111.762 19.8828C110.465 19.9297 109.52 20.1484 108.926 20.5391C108.34 20.9219 108.047 21.5117 108.047 22.3086C108.047 22.8867 108.219 23.3359 108.562 23.6562C108.906 23.9688 109.422 24.125 110.109 24.125ZM122.777 26H120.023V7.76562H122.777V26ZM142.828 26H139.781L136.875 15.7812C136.75 15.3359 136.594 14.6953 136.406 13.8594C136.219 13.0156 136.105 12.4297 136.066 12.1016C135.988 12.6016 135.859 13.25 135.68 14.0469C135.508 14.8438 135.363 15.4375 135.246 15.8281L132.41 26H129.363L127.148 17.4219L124.898 8.86719H127.758L130.207 18.8516C130.59 20.4531 130.863 21.8672 131.027 23.0938C131.113 22.4297 131.242 21.6875 131.414 20.8672C131.586 20.0469 131.742 19.3828 131.883 18.875L134.672 8.86719H137.449L140.309 18.9219C140.582 19.8516 140.871 21.2422 141.176 23.0938C141.293 21.9766 141.574 20.5547 142.02 18.8281L144.457 8.86719H147.293L142.828 26ZM155.098 26.2344C153.082 26.2344 151.504 25.6484 150.363 24.4766C149.23 23.2969 148.664 21.6758 148.664 19.6133C148.664 17.4961 149.191 15.832 150.246 14.6211C151.301 13.4102 152.75 12.8047 154.594 12.8047C156.305 12.8047 157.656 13.3242 158.648 14.3633C159.641 15.4023 160.137 16.832 160.137 18.6523V20.1406H151.5C151.539 21.3984 151.879 22.3672 152.52 23.0469C153.16 23.7188 154.062 24.0547 155.227 24.0547C155.992 24.0547 156.703 23.9844 157.359 23.8438C158.023 23.6953 158.734 23.4531 159.492 23.1172V25.3555C158.82 25.6758 158.141 25.9023 157.453 26.0352C156.766 26.168 155.98 26.2344 155.098 26.2344ZM154.594 14.8906C153.719 14.8906 153.016 15.168 152.484 15.7227C151.961 16.2773 151.648 17.0859 151.547 18.1484H157.43C157.414 17.0781 157.156 16.2695 156.656 15.7227C156.156 15.168 155.469 14.8906 154.594 14.8906ZM169.887 12.8047C171.504 12.8047 172.762 13.3906 173.66 14.5625C174.566 15.7344 175.02 17.3789 175.02 19.4961C175.02 21.6211 174.562 23.2773 173.648 24.4648C172.734 25.6445 171.465 26.2344 169.84 26.2344C168.199 26.2344 166.926 25.6445 166.02 24.4648H165.832L165.328 26H163.266V7.76562H166.02V12.1016C166.02 12.4219 166.004 12.8984 165.973 13.5312C165.941 14.1641 165.918 14.5664 165.902 14.7383H166.02C166.895 13.4492 168.184 12.8047 169.887 12.8047ZM169.172 15.0547C168.062 15.0547 167.262 15.3828 166.77 16.0391C166.285 16.6875 166.035 17.7773 166.02 19.3086V19.4961C166.02 21.0742 166.27 22.2188 166.77 22.9297C167.27 23.6328 168.086 23.9844 169.219 23.9844C170.195 23.9844 170.934 23.5977 171.434 22.8242C171.941 22.0508 172.195 20.9336 172.195 19.4727C172.195 16.5273 171.188 15.0547 169.172 15.0547Z" fill="#252525"/>
<rect width="32" height="32" rx="8" fill="#6EBCB6"/>
<path fill-rule="evenodd" clip-rule="evenodd" d="M25.6521 17.5994C25.6521 22.1604 24.8017 27.9533 22.2129 27.9533C17.97 27.9533 19.9241 19.0785 16.2678 19.0785C12.6114 19.0785 13.8478 28 10.3543 28C7.89813 28 6.92109 22.0956 6.92109 17.5994C6.92109 14.8749 3.313 10.4058 5.98627 6.45395C9.26417 1.60798 12.4214 5.4347 16.1863 5.4347C20.0085 5.4347 22.9894 1.68789 26.4814 6.45395C29.2497 10.237 25.6521 14.9216 25.6521 17.5994Z" fill="white"/>
</svg>
