<svg width="20" height="20" viewBox="0 0 20 20" fill="none" xmlns="http://www.w3.org/2000/svg">
<path fill-rule="evenodd" clip-rule="evenodd" d="M0.398093 0.401561C0.0115447 0.788111 0 1.06499 0 9.95583C0 18.8467 0.0115447 19.1236 0.398093 19.5101C0.781457 19.8935 1.06152 19.9082 7.96186 19.9082C16.5605 19.9082 15.9237 20.1176 15.9237 17.2897C15.9237 15.4929 15.9184 15.4724 15.5338 15.8202C15.2297 16.0956 15.1313 16.4846 15.0859 17.5927L15.028 19.0125H7.96186H0.89571V9.95583V0.89918H7.96186H15.028L15.0881 2.17467C15.1301 3.0686 15.2641 3.59766 15.536 3.94321L15.9237 4.43625V2.61795C15.9237 -0.205334 16.5595 0.00346679 7.96186 0.00346679C1.06152 0.00346679 0.781457 0.0181963 0.398093 0.401561ZM14.8158 5.39904C14.738 5.52504 15.5173 6.45996 16.6385 7.58558L18.5975 9.55177L12.5332 9.60451C7.29904 9.6501 6.46901 9.69807 6.46901 9.95583C6.46901 10.2136 7.29904 10.2616 12.5332 10.3072L18.5975 10.3599L16.6206 12.3442C15.0491 13.9217 14.6942 14.3793 14.8901 14.5751C15.0859 14.771 15.6353 14.3227 17.5682 12.3898L20 9.95802L17.6166 7.56826C16.3059 6.25395 15.1699 5.1787 15.0927 5.1787C15.0153 5.1787 14.8907 5.27782 14.8158 5.39904Z" fill="#7B8899"/>
</svg>
