<svg width="20" height="20" viewBox="0 0 20 20" fill="none" xmlns="http://www.w3.org/2000/svg">
<path fill-rule="evenodd" clip-rule="evenodd" d="M7.19534 0.284622C3.6282 1.1478 0.755252 4.30646 0.126742 8.05619C-0.694401 12.9552 2.56047 17.8032 7.39885 18.8877C9.38247 19.3324 10.9173 19.2399 10.9969 18.6708C11.0513 18.283 10.9294 18.2508 9.3237 18.2299C5.69716 18.1824 2.75854 16.139 1.38565 12.7099C0.732873 11.0797 0.732873 8.06539 1.38565 6.43524C1.99826 4.90527 3.08482 3.46336 4.29896 2.57006C5.97827 1.33416 7.30682 0.918779 9.57887 0.918779C11.139 0.918779 11.8131 1.01771 12.7162 1.37934C15.9794 2.68572 18.0402 5.52102 18.2916 9.04947C18.3489 9.85471 18.5025 10.7327 18.6328 11.0005C18.8492 11.4453 18.8825 11.4543 19.0201 11.105C19.5035 9.87793 18.9432 6.61093 17.9522 4.87892C15.786 1.09301 11.4711 -0.749858 7.19534 0.284622ZM9.30446 2.1781C9.22519 2.25716 9.16056 3.67084 9.16056 5.31982C9.16056 8.03883 9.12166 8.35654 8.74225 8.73594C8.51218 8.96601 8.32394 9.41047 8.32394 9.72378C8.32394 10.1419 7.97863 10.6418 7.02488 11.6039C6.00211 12.6361 5.7802 12.9688 5.98141 13.17C6.18261 13.3712 6.51538 13.1493 7.54756 12.1266C8.50967 11.1728 9.00955 10.8275 9.42765 10.8275C10.0959 10.8275 10.8338 10.1689 10.8338 9.57256C10.8338 9.34249 10.6481 8.96852 10.4211 8.74159C10.0539 8.37432 10.002 7.99073 9.95054 5.2554C9.89637 2.386 9.7577 1.72486 9.30446 2.1781ZM14.6797 10.6142C13.7488 10.9904 13.3437 11.8258 13.3437 13.3698C13.3437 14.5561 13.4384 14.9598 13.8814 15.6617C14.1771 16.1302 14.37 16.6418 14.31 16.7984C14.2499 16.9551 13.8285 17.273 13.3736 17.5052C12.3749 18.0147 11.6294 18.9082 11.7135 19.4951C11.7731 19.913 11.8957 19.9257 15.8535 19.9257C19.8114 19.9257 19.9339 19.913 19.9935 19.4951C20.0776 18.9082 19.3322 18.0147 18.3335 17.5052C17.8786 17.273 17.4571 16.9551 17.3971 16.7984C17.3371 16.6418 17.5299 16.1302 17.8256 15.6617C18.2621 14.9702 18.3634 14.5511 18.3634 13.4365C18.3634 12.2575 18.2908 11.9908 17.8499 11.5501C17.5675 11.2678 17.2028 11.0366 17.039 11.0366C16.8752 11.0366 16.6243 10.8955 16.481 10.7229C16.1976 10.3814 15.3785 10.3318 14.6797 10.6142ZM15.9581 11.455C16.0292 11.57 16.2633 11.6641 16.4785 11.6641C17.6313 11.6641 17.9547 13.9033 17.0039 15.3045C16.0997 16.6368 16.3609 17.4498 17.9526 18.2563C18.5236 18.5457 18.9908 18.8749 18.9908 18.9881C18.9908 19.1136 17.7698 19.1937 15.8535 19.1937C13.9372 19.1937 12.7162 19.1136 12.7162 18.9881C12.7162 18.8749 13.1834 18.5457 13.7544 18.2563C15.3461 17.4498 15.6073 16.6368 14.7032 15.3045C14.2976 14.7067 14.1809 14.2708 14.1834 13.3604C14.187 12.087 14.2773 11.8559 14.9123 11.4957C15.436 11.1987 15.7912 11.1849 15.9581 11.455Z" fill="#7B8899"/>
</svg>
