<svg width="20" height="21" viewBox="0 0 20 21" fill="none" xmlns="http://www.w3.org/2000/svg">
<path fill-rule="evenodd" clip-rule="evenodd" d="M7.08151 0.416559C6.85011 0.647958 6.66495 1.11076 6.66495 1.45796V2.0828H3.74903C1.11076 2.0828 0.793546 2.12237 0.416559 2.49936C0.0172872 2.89863 0 3.19355 0 9.58087C0 15.9682 0.0172872 16.2631 0.416559 16.6624C0.81 17.0558 1.11076 17.0789 5.83183 17.0789C10.6764 17.0789 10.8305 17.0662 10.8305 16.6661C10.8305 16.2677 10.6579 16.2514 5.8839 16.1975L0.937259 16.1417L0.87894 13.4861L0.820622 10.8305H9.99118H19.1617V11.8719C19.1617 12.7744 19.2173 12.9133 19.5783 12.9133C19.9832 12.9133 19.9949 12.7744 19.9949 7.91463C19.9949 1.61084 20.2983 2.0828 16.2458 2.0828H13.3299V1.45796C13.3299 1.11076 13.1447 0.647958 12.9133 0.416559C12.543 0.0462381 12.2191 0 9.99743 0C7.77571 0 7.45183 0.0462381 7.08151 0.416559ZM12.4585 1.51003L12.5245 2.0828H10.0112C7.51723 2.0828 7.49807 2.07905 7.49807 1.59688C7.49807 1.32945 7.56347 1.04536 7.64345 0.965585C7.72322 0.885605 8.8246 0.846657 10.0907 0.878732L12.3926 0.937259L12.4585 1.51003ZM19.0576 6.45667V9.89329H9.99743H0.937259L0.879565 6.6737C0.847698 4.9029 0.868735 3.33206 0.926012 3.18272C1.00974 2.96444 2.79199 2.92216 10.0439 2.96569L19.0576 3.02006V6.45667ZM9.38092 7.80049C9.05704 8.1906 9.17014 8.74546 9.63294 9.03684C10.3546 9.49131 11.1673 8.46719 10.6139 7.80049C10.2923 7.41288 9.7025 7.41288 9.38092 7.80049ZM15.1913 11.7818C14.7804 12.2194 14.5652 12.2931 14.0068 12.1883C13.2937 12.0546 13.2703 12.0777 13.0375 13.1472C12.9612 13.4982 12.6942 13.7867 12.2912 13.9537C11.5597 14.2565 11.572 14.2149 11.9815 15.0066C12.2662 15.5572 12.2662 15.6847 11.9815 16.2354C11.572 17.0271 11.5597 16.9854 12.2912 17.2883C12.6942 17.4553 12.9612 17.7438 13.0375 18.0947C13.2728 19.1761 13.298 19.2019 13.9737 19.0534C14.5036 18.937 14.725 19.0147 15.2234 19.4925L15.8293 20.0727L16.4191 19.5077C16.8661 19.0795 17.1818 18.9564 17.7209 18.9999C18.3861 19.0538 18.4371 19.0132 18.4982 18.3792C18.5483 17.8585 18.7179 17.6223 19.2271 17.3632C19.592 17.1779 19.9211 16.9998 19.9582 16.9677C19.9953 16.9356 19.8757 16.6195 19.6924 16.2652C19.3871 15.6747 19.3871 15.5672 19.6924 14.9768C19.8757 14.6225 19.9953 14.3063 19.9582 14.2742C19.9211 14.2422 19.592 14.0641 19.2271 13.8787C18.7179 13.6196 18.5483 13.3834 18.4982 12.8627C18.4365 12.2239 18.3894 12.1877 17.6917 12.2404C17.1245 12.2833 16.8352 12.1735 16.4578 11.7718C15.8482 11.123 15.8099 11.1232 15.1913 11.7818ZM16.2606 12.8269C16.4343 13.0362 16.753 13.125 17.1312 13.0696C17.6438 12.9944 17.744 13.0618 17.8412 13.5488C17.9062 13.8731 18.1674 14.2124 18.4521 14.3421C18.8943 14.5438 18.9228 14.6271 18.7098 15.0949C18.529 15.4916 18.529 15.7503 18.7098 16.1471C18.9228 16.6149 18.8943 16.6982 18.4521 16.8998C18.1647 17.0306 17.906 17.3691 17.8398 17.7007C17.7425 18.187 17.6425 18.259 17.1864 18.172C16.8444 18.1066 16.4985 18.2043 16.2385 18.4394C15.8463 18.7943 15.8122 18.7943 15.42 18.4394C15.1601 18.2043 14.8141 18.1066 14.4721 18.172C14.016 18.259 13.916 18.187 13.8187 17.7007C13.7525 17.3691 13.4938 17.0306 13.2064 16.8998C12.7642 16.6982 12.7357 16.6149 12.9487 16.1471C13.1295 15.7503 13.1295 15.4916 12.9487 15.0949C12.7357 14.6271 12.7642 14.5438 13.2064 14.3421C13.4911 14.2124 13.7523 13.8731 13.8173 13.5488C13.9145 13.0618 14.0147 12.9944 14.5273 13.0696C14.9055 13.125 15.2242 13.0362 15.3979 12.8269C15.5487 12.6453 15.7428 12.4968 15.8293 12.4968C15.9157 12.4968 16.1098 12.6453 16.2606 12.8269Z" fill="#7B8899"/>
</svg>
