<svg width="20" height="24" viewBox="0 0 20 24" fill="none" xmlns="http://www.w3.org/2000/svg">
<path fill-rule="evenodd" clip-rule="evenodd" d="M8.2485 0.151255C7.094 0.530255 6.13125 1.1335 5.3405 1.974C3.992 3.407 3.663 4.32875 3.5475 6.99525L3.44175 9.43275H2.221C1.33325 9.43275 0.8635 9.56925 0.5 9.93275C0.02675 10.406 0 10.766 0 16.6828C0 22.5995 0.02675 22.9595 0.5 23.4328C0.9815 23.9143 1.33325 23.9328 10 23.9328C18.6667 23.9328 19.0185 23.9143 19.5 23.4328C19.9732 22.9595 20 22.5995 20 16.6828C20 10.766 19.9732 10.406 19.5 9.93275C19.1365 9.56925 18.6667 9.43275 17.779 9.43275H16.5583L16.4525 6.99525C16.337 4.329 16.008 3.40775 14.6595 1.97325C14.228 1.5145 13.4282 0.908755 12.8822 0.627755C11.8047 0.0725046 9.2795 -0.186995 8.2485 0.151255ZM12.907 1.82625C14.7192 2.9465 15.5 4.6055 15.5 7.33625V9.43275H9.97575H4.45175L4.53825 7.09975C4.6155 5.022 4.7075 4.6335 5.37875 3.54825C6.984 0.954005 10.2778 0.200505 12.907 1.82625ZM18.875 16.6828V22.8078H10H1.125L1.05775 16.938C1.02075 13.7095 1.046 10.9238 1.11375 10.7473C1.21125 10.4928 3.06075 10.44 10.056 10.492L18.875 10.5578V16.6828ZM3.26 16.2958C2.59575 17.096 3.57125 18.3253 4.4375 17.7798C5.303 17.2345 4.99475 15.9328 4 15.9328C3.75875 15.9328 3.42575 16.096 3.26 16.2958ZM7.26 16.2958C6.59575 17.096 7.57125 18.3253 8.4375 17.7798C9.303 17.2345 8.99475 15.9328 8 15.9328C7.75875 15.9328 7.42575 16.096 7.26 16.2958ZM11.26 16.2958C10.5957 17.096 11.5712 18.3253 12.4375 17.7798C13.303 17.2345 12.9948 15.9328 12 15.9328C11.7587 15.9328 11.4257 16.096 11.26 16.2958ZM15.26 16.2958C14.5957 17.096 15.5712 18.3253 16.4375 17.7798C17.303 17.2345 16.9948 15.9328 16 15.9328C15.7587 15.9328 15.4257 16.096 15.26 16.2958Z" fill="#7B8899"/>
</svg>
