<svg width="20" height="17" viewBox="0 0 20 17" fill="none" xmlns="http://www.w3.org/2000/svg">
<path d="M6.34098 0.210307C4.68594 0.788573 3.78863 2.68289 4.18744 4.75667C4.32702 5.47452 4.32702 5.97303 4.18744 6.33195C4.02792 6.75069 4.0678 7.00992 4.30708 7.46854C5.48355 9.66196 5.66301 10.1605 5.60319 10.978C5.54337 11.7956 5.50349 11.8354 4.34696 12.3738C1.15653 13.8693 0.319043 14.6071 0.119641 16.1026L0 16.9202H16.0718L15.9322 16.1425C15.8724 15.7038 15.7527 15.2253 15.6929 15.0458C15.5932 14.7667 15.8524 14.7268 17.7866 14.7268C19.8804 14.7268 20 14.7068 20 14.328C20 13.0319 18.9631 11.9351 17.009 11.1176C15.5932 10.5393 15.2144 10.2003 15.2144 9.56226C15.2144 9.04382 15.7527 7.80752 16.2313 7.22926C16.3709 7.0498 16.4905 6.07273 16.5503 4.75667C16.65 2.08469 16.4706 1.68588 14.9551 0.908214C13.7188 0.290068 12.5224 0.210307 11.5454 0.668931C10.8674 0.987975 10.6082 0.948094 9.4317 0.270127C8.85344 -0.068856 7.21835 -0.0887962 6.34098 0.210307ZM9.61117 1.26714C10.1695 1.5463 10.7478 1.98498 10.9272 2.22427C11.2662 2.70283 11.3061 4.03883 11.0269 5.25518C10.9073 5.77362 10.9272 6.13255 11.0668 6.29207C11.3061 6.59117 10.987 7.5483 10.6281 7.5483C10.5284 7.5483 10.4287 7.7477 10.4287 7.98699C10.4287 8.24621 10.2493 8.74471 10.0299 9.10364C9.77069 9.54232 9.63111 10.1006 9.63111 10.7986C9.63111 12.1345 10.1097 12.6331 12.2632 13.5304C13.2602 13.9491 14.0179 14.4077 14.4168 14.8464C15.5733 16.1625 15.7727 16.1226 8.03589 16.1226C0.299103 16.1226 0.498504 16.1625 1.65503 14.8464C2.05384 14.4077 2.81157 13.9491 3.80857 13.5304C5.96211 12.6331 6.44068 12.1345 6.44068 10.7986C6.44068 10.1006 6.3011 9.54232 6.04187 9.10364C5.82253 8.74471 5.64307 8.24621 5.64307 7.98699C5.64307 7.7477 5.54337 7.5483 5.44367 7.5483C5.06481 7.5483 4.7657 6.59117 5.02493 6.29207C5.18445 6.07273 5.20439 5.75368 5.02493 4.95608C4.7657 3.75966 4.90528 2.56325 5.38385 1.82546C6.12163 0.688872 7.97607 0.449589 9.61117 1.26714ZM14.2971 1.46654C14.4566 1.62606 14.7159 1.76564 14.8953 1.76564C15.673 1.76564 16.0718 3.56026 15.6331 5.1156C15.5135 5.5144 15.5135 5.75368 15.6331 5.75368C15.9322 5.75368 15.8325 6.55129 15.5135 6.67093C15.3539 6.75069 15.2144 6.9501 15.2144 7.12956C15.2144 7.30902 15.0349 7.7477 14.8156 8.10663C14.5962 8.46555 14.4168 9.10364 14.4168 9.56226C14.4168 10.5792 15.0947 11.2771 16.6102 11.8155C17.7268 12.2143 19.003 13.1914 19.003 13.65C19.003 13.8693 18.5842 13.9292 16.9691 13.9292C14.995 13.9292 14.8754 13.9092 13.2203 13.1116C10.4885 11.8354 10.5284 11.8554 10.4686 10.998C10.4088 10.2801 10.7677 9.2831 11.7647 7.46854C12.004 7.02986 12.0239 6.75069 11.8843 6.37183C11.7647 6.05279 11.7647 5.59416 11.8843 5.15548C12.0638 4.45757 11.984 2.64301 11.7248 1.82546C11.5653 1.3469 11.8245 1.22726 13.1605 1.18738C13.659 1.16744 14.1176 1.28708 14.2971 1.46654Z" fill="#7B8899"/>
</svg>
