<svg width="20" height="22" viewBox="0 0 20 22" fill="none" xmlns="http://www.w3.org/2000/svg">
<path d="M7.89082 0.27683C5.83127 0.996433 4.71464 3.35375 5.21092 5.9344C5.38462 6.8277 5.38462 7.44805 5.21092 7.8947C5.01241 8.41579 5.06204 8.73838 5.3598 9.3091C6.82382 12.0386 7.04715 12.659 6.9727 13.6763C6.89826 14.6937 6.84864 14.7433 5.40943 15.4133C1.43921 17.2744 0.397022 18.1925 0.148883 20.0535L0 21.0709H20L19.8511 20.0535C19.603 18.1925 18.5608 17.2744 14.5906 15.4133C13.1762 14.7433 13.1017 14.6689 13.0273 13.726C12.9529 12.8079 13.3995 11.592 14.6402 9.3091C14.938 8.76319 14.9628 8.39098 14.7891 7.94433C14.665 7.59694 14.6402 7.02621 14.7395 6.67882C14.8387 6.33143 14.9132 5.43812 14.938 4.69371C14.9876 2.43564 14.1935 1.41827 11.5385 0.227202C10.8189 -0.095379 8.85856 -0.0705651 7.89082 0.27683ZM11.9603 1.59197C12.6551 1.93936 13.3747 2.48527 13.598 2.78304C14.0199 3.37857 14.0695 5.0411 13.7221 6.55475C13.5732 7.19991 13.598 7.64656 13.7717 7.84507C14.0695 8.21728 13.6725 9.40835 13.2258 9.40835C13.1017 9.40835 12.9777 9.65649 12.9777 9.95426C12.9777 10.2768 12.7543 10.8972 12.4814 11.3438C12.134 11.8897 11.9851 12.5845 11.9851 13.5026C11.9851 14.7185 12.0596 14.8922 12.804 15.4878C13.2506 15.86 14.4169 16.4803 15.4094 16.9022C16.5261 17.3488 17.469 17.9692 17.9404 18.4902C19.3797 20.128 19.6278 20.0783 10 20.0783C0.372208 20.0783 0.620347 20.128 2.05955 18.4902C2.55583 17.9443 3.49876 17.3736 4.73945 16.8525C7.41936 15.7359 8.01489 15.1156 8.01489 13.453C8.01489 12.5845 7.84119 11.8897 7.51861 11.3438C7.24566 10.8972 7.02233 10.2768 7.02233 9.95426C7.02233 9.65649 6.89826 9.40835 6.77419 9.40835C6.30273 9.40835 5.93052 8.21728 6.2531 7.84507C6.45161 7.57212 6.47643 7.1751 6.2531 6.18254C5.93052 4.69371 6.10422 3.20487 6.69975 2.28676C7.61787 0.872364 9.92556 0.574597 11.9603 1.59197Z" fill="#7B8899"/>
</svg>
