<svg width="20" height="24" viewBox="0 0 20 24" fill="none" xmlns="http://www.w3.org/2000/svg">
<path d="M5.71429 0.476191C5.71429 0.928573 5.54762 0.952383 3.2381 0.952383C1.28571 0.952383 0.666667 1.02381 0.380952 1.33334C0.0476191 1.66667 0 3.00001 0 12.381C0 21.7619 0.0476191 23.0953 0.380952 23.4286C0.690476 23.762 1.90476 23.8096 10 23.8096C18.0952 23.8096 19.3095 23.762 19.619 23.4286C19.9524 23.0953 20 21.7619 20 12.381C20 3.00001 19.9524 1.66667 19.619 1.33334C19.3333 1.02381 18.7143 0.952383 16.7619 0.952383C14.4524 0.952383 14.2857 0.928573 14.2857 0.476191C14.2857 0.0238096 14.119 0 10 0C5.88095 0 5.71429 0.0238096 5.71429 0.476191ZM13.3333 3.80953H6.66667V0.952383H13.3333V3.80953ZM5.71429 2.38096C5.71429 2.80953 5.54762 2.85715 4.04762 2.85715H2.38095V21.4286H17.619V2.85715H15.9524C14.4524 2.85715 14.2857 2.80953 14.2857 2.38096C14.2857 1.92858 14.4524 1.90477 16.6667 1.90477H19.0476V22.8572H0.952381V1.90477H3.33333C5.54762 1.90477 5.71429 1.92858 5.71429 2.38096ZM5.71429 4.28572C5.71429 4.7381 5.88095 4.76191 10 4.76191C14.119 4.76191 14.2857 4.7381 14.2857 4.28572C14.2857 3.88096 14.4524 3.80953 15.4762 3.80953H16.6667V20.4762H3.33333V3.80953H4.52381C5.54762 3.80953 5.71429 3.88096 5.71429 4.28572Z" fill="#7B8899"/>
<path d="M10.4762 6.66668C10.4762 7.11906 10.6429 7.14287 12.619 7.14287C14.5952 7.14287 14.7619 7.11906 14.7619 6.66668C14.7619 6.2143 14.5952 6.19049 12.619 6.19049C10.6429 6.19049 10.4762 6.2143 10.4762 6.66668Z" fill="#7B8899"/>
<path d="M6.66667 7.85716C6.66667 8.50002 6.59524 8.57145 5.95238 8.57145C5.40476 8.57145 5.2381 8.66668 5.2381 9.04764C5.2381 9.42859 5.40476 9.52383 5.95238 9.52383C6.59524 9.52383 6.66667 9.59526 6.66667 10.2381C6.66667 10.7857 6.7619 10.9524 7.14286 10.9524C7.52381 10.9524 7.61905 10.7857 7.61905 10.2381C7.61905 9.59526 7.69048 9.52383 8.33333 9.52383C8.88095 9.52383 9.04762 9.42859 9.04762 9.04764C9.04762 8.66668 8.88095 8.57145 8.33333 8.57145C7.69048 8.57145 7.61905 8.50002 7.61905 7.85716C7.61905 7.30954 7.52381 7.14287 7.14286 7.14287C6.7619 7.14287 6.66667 7.30954 6.66667 7.85716Z" fill="#7B8899"/>
<path d="M10.4762 9.04764C10.4762 9.50002 10.6429 9.52383 12.619 9.52383C14.5952 9.52383 14.7619 9.50002 14.7619 9.04764C14.7619 8.59525 14.5952 8.57145 12.619 8.57145C10.6429 8.57145 10.4762 8.59525 10.4762 9.04764Z" fill="#7B8899"/>
<path d="M10.4762 11.4286C10.4762 11.881 10.6429 11.9048 12.619 11.9048C14.5952 11.9048 14.7619 11.881 14.7619 11.4286C14.7619 10.9762 14.5952 10.9524 12.619 10.9524C10.6429 10.9524 10.4762 10.9762 10.4762 11.4286Z" fill="#7B8899"/>
<path d="M5.2381 13.8096C5.2381 14.2619 5.40476 14.2857 10 14.2857C14.5952 14.2857 14.7619 14.2619 14.7619 13.8096C14.7619 13.3572 14.5952 13.3334 10 13.3334C5.40476 13.3334 5.2381 13.3572 5.2381 13.8096Z" fill="#7B8899"/>
<path d="M5.2381 16.1905C5.2381 16.6429 5.40476 16.6667 10 16.6667C14.5952 16.6667 14.7619 16.6429 14.7619 16.1905C14.7619 15.7381 14.5952 15.7143 10 15.7143C5.40476 15.7143 5.2381 15.7381 5.2381 16.1905Z" fill="#7B8899"/>
<path d="M5.2381 18.5715C5.2381 19.0238 5.40476 19.0477 10 19.0477C14.5952 19.0477 14.7619 19.0238 14.7619 18.5715C14.7619 18.1191 14.5952 18.0953 10 18.0953C5.40476 18.0953 5.2381 18.1191 5.2381 18.5715Z" fill="#7B8899"/>
</svg>
