<svg width="20" height="18" viewBox="0 0 20 18" fill="none" xmlns="http://www.w3.org/2000/svg">
<path d="M0.080996 1.06628C0.00899955 1.23428 -0.0149992 5.09808 0.00899955 9.65785L0.080996 17.9374H20V0.898292L10.0885 0.826296C2.26489 0.778298 0.152992 0.826296 0.080996 1.06628ZM19.16 17.0975H0.920954V1.73825H19.16V17.0975Z" fill="#7B8899"/>
<path d="M7.16064 3.65815C6.89666 3.92214 6.68067 4.35412 6.68067 4.61811C6.68067 4.88209 6.89666 5.31407 7.16064 5.57806C7.56862 5.98604 7.9526 6.05803 10.0405 6.05803C12.1284 6.05803 12.5124 5.98604 12.9204 5.57806C13.1843 5.31407 13.4003 4.88209 13.4003 4.61811C13.4003 4.35412 13.1843 3.92214 12.9204 3.65815C12.5124 3.25017 12.1284 3.17818 10.0405 3.17818C7.9526 3.17818 7.56862 3.25017 7.16064 3.65815ZM12.3204 4.61811C12.3204 4.90609 11.8884 5.00209 10.1845 5.05008C8.09659 5.12208 7.42463 4.93009 7.76061 4.40212C7.85661 4.21013 8.67257 4.13813 10.1125 4.18613C11.8884 4.23413 12.3204 4.33012 12.3204 4.61811Z" fill="#7B8899"/>
<path d="M12.8244 11.6978C12.6084 12.0337 12.5364 12.2977 12.6804 12.2977C12.8004 12.2977 12.9204 12.6097 12.9204 13.0177C12.9204 13.5697 13.0163 13.7376 13.4003 13.7376C13.7843 13.7376 13.8803 13.5697 13.8803 13.0177C13.8803 12.6097 14.0003 12.2977 14.1203 12.2977C14.2643 12.2977 14.1923 12.0337 13.9763 11.6978C13.7603 11.3618 13.4963 11.0978 13.4003 11.0978C13.3043 11.0978 13.0403 11.3618 12.8244 11.6978Z" fill="#7B8899"/>
<path d="M15.7042 11.6978C15.4882 12.0337 15.4162 12.2977 15.5602 12.2977C15.6802 12.2977 15.8002 12.6097 15.8002 13.0177C15.8002 13.5697 15.8962 13.7376 16.2802 13.7376C16.6642 13.7376 16.7602 13.5697 16.7602 13.0177C16.7602 12.6097 16.8802 12.2977 17.0002 12.2977C17.1441 12.2977 17.0721 12.0337 16.8562 11.6978C16.6402 11.3618 16.3762 11.0978 16.2802 11.0978C16.1842 11.0978 15.9202 11.3618 15.7042 11.6978Z" fill="#7B8899"/>
<path d="M12.4404 14.6976C12.4404 15.1536 12.6084 15.1776 14.8403 15.1776C17.0721 15.1776 17.2401 15.1536 17.2401 14.6976C17.2401 14.2416 17.0721 14.2176 14.8403 14.2176C12.6084 14.2176 12.4404 14.2416 12.4404 14.6976Z" fill="#7B8899"/>
</svg>
