<svg width="20" height="22" viewBox="0 0 20 22" fill="none" xmlns="http://www.w3.org/2000/svg">
<path d="M8.01792 0.997376C6.42777 1.4901 5.35274 2.40835 4.79283 3.75214C4.32251 4.84957 4.43449 8.90333 4.92721 9.46324C5.55431 10.2023 6.2262 11.9045 6.2262 12.7331C6.2262 13.7858 5.73348 14.2337 3.71781 15.0176C1.79171 15.779 0.291153 17.1452 0.0671892 18.3322C-0.0223964 18.7802 -0.0223964 19.2281 0.0671892 19.3625C0.156775 19.5193 1.79171 19.6088 4.77044 19.6088H9.33931L9.40649 20.4375L9.47368 21.2886H20V11.2102L16.0358 11.143L12.0717 11.0982L12.2956 10.4711C12.43 10.1351 12.6988 9.6872 12.9003 9.46324C13.4378 8.85854 13.5274 5.09593 13.0347 3.77454C12.654 2.7443 11.8029 1.91563 11.131 1.91563C10.9071 1.91563 10.5487 1.66927 10.3471 1.35572C9.9664 0.773411 9.18253 0.661429 8.01792 0.997376ZM9.76484 2.07241C9.87682 2.27397 10.3024 2.54273 10.7055 2.67711C11.1086 2.81149 11.6461 3.19223 11.8701 3.50578C12.4524 4.26726 12.6316 5.76782 12.2732 6.61889C12.0493 7.13401 12.0493 7.38037 12.2508 7.58194C12.6316 7.96268 12.542 8.52259 12.0493 8.97052C11.8029 9.19448 11.6013 9.50803 11.6013 9.66481C11.6013 10.4935 11.0862 11.0758 10.28 11.143L9.47368 11.2102L9.40649 14.9504L9.3617 18.713H5.21837C2.46361 18.713 1.07503 18.6234 1.07503 18.489C1.07503 17.6603 1.8589 16.8989 3.42665 16.1374C4.3449 15.7119 5.19597 15.3535 5.30795 15.3535C5.44233 15.3535 5.89026 15.04 6.33819 14.6592C7.05487 14.0321 7.12206 13.8529 7.12206 12.7555C7.12206 11.9492 6.96529 11.3221 6.67413 10.8294C6.42777 10.4263 6.2262 9.93357 6.2262 9.732C6.2262 9.53043 6.02464 9.19448 5.77828 8.97052C5.28555 8.52259 5.19597 7.96268 5.5991 7.55954C5.80067 7.35797 5.80067 7.1564 5.5991 6.73087C4.74804 4.87196 5.97984 2.58752 8.19709 1.91563C9.16013 1.62448 9.54087 1.66927 9.76484 2.07241ZM19.2161 20.5047H10.2576V11.994H19.2161V20.5047Z" fill="#7B8899"/>
<path d="M12.6092 13.1363C12.2956 13.629 12.9227 13.8082 14.8712 13.741C16.4614 13.6962 16.8645 13.6066 16.8645 13.3378C16.8645 13.0691 16.4614 12.9795 14.804 12.9347C13.4602 12.8899 12.6988 12.9571 12.6092 13.1363Z" fill="#7B8899"/>
</svg>
