<svg width="20" height="20" viewBox="0 0 20 20" fill="none" xmlns="http://www.w3.org/2000/svg">
<path fill-rule="evenodd" clip-rule="evenodd" d="M2.48352 0.209341C0.993753 0.658545 -0.423262 2.13754 0.117602 2.67841C0.306186 2.86699 0.60055 2.7246 1.17683 2.16578C1.86057 1.50334 3.60713 0.727469 3.85554 0.975883C3.90006 1.02016 5.29266 4.49868 6.95067 8.70568C8.60868 12.9129 10.0597 16.4496 10.175 16.565C10.3873 16.7772 19.4202 13.5756 19.8653 13.1305C20.0183 12.9775 20.008 12.8045 19.8359 12.6324C19.6437 12.4403 18.3892 12.8045 15.2175 13.9731C12.8224 14.8555 10.78 15.4859 10.6786 15.3736C10.5773 15.2614 9.229 11.9389 7.68203 7.99012C6.13531 4.04133 4.77094 0.622168 4.65032 0.391703C4.41651 -0.0553473 3.59205 -0.12475 2.48352 0.209341ZM12.355 4.42353C10.0566 5.27814 8.12765 6.02578 8.06829 6.08513C7.94265 6.21053 10.8712 13.8676 11.1682 14.1904C11.3759 14.4161 19.4092 11.6082 19.9328 11.1266C20.1542 10.9232 19.8548 9.93483 18.6381 6.85335C17.7677 4.64849 16.9382 2.85048 16.7946 2.85742C16.6513 2.86412 14.6532 3.56892 12.355 4.42353ZM17.6579 6.97301C18.2753 8.58531 18.8135 10.0523 18.8537 10.2328C18.9038 10.4568 17.8366 10.9685 15.4846 11.8482C13.5911 12.5561 11.9663 13.1355 11.874 13.1355C11.6789 13.1355 9.10647 6.71119 9.25508 6.59512C9.43098 6.45775 16.0467 4.07197 16.2952 4.05641C16.4273 4.04804 17.0404 5.36047 17.6579 6.97301ZM13.1235 6.9395C11.9967 7.37506 11.5502 7.89295 12.0465 8.18827C12.4007 8.39935 15.0978 7.27407 15.0978 6.91557C15.0978 6.3893 14.5283 6.39625 13.1235 6.9395ZM5.91035 14.6662C5.23259 15.0417 4.70776 15.9109 4.6958 16.6774C4.68335 17.4878 5.3221 18.5776 5.94122 18.8024C6.29158 18.9297 5.34411 19.041 3.2515 19.1185C0.592413 19.2171 0.020677 19.3016 0.020677 19.5971C0.020677 19.9104 1.28381 19.9561 9.95246 19.9561C18.6211 19.9561 19.8842 19.9104 19.8842 19.5971C19.8842 19.2906 18.9935 19.2207 13.7816 19.1185C10.1736 19.0477 7.90005 18.9184 8.22002 18.8024C8.81258 18.5872 9.47382 17.5041 9.47382 16.7485C9.47382 14.9517 7.48818 13.7915 5.91035 14.6662ZM8.2698 16.0672C8.59887 16.6581 8.59887 16.7926 8.2698 17.3834C7.77178 18.278 6.56895 18.4171 6.02666 17.6429C5.53366 16.9388 5.54203 16.2783 6.05131 15.7154C6.65056 15.0532 7.8072 15.2365 8.2698 16.0672Z" fill="#7B8899"/>
</svg>
