<svg width="20" height="20" viewBox="0 0 20 20" fill="none" xmlns="http://www.w3.org/2000/svg">
<path fill-rule="evenodd" clip-rule="evenodd" d="M4.04231 0.26755C3.27603 0.528901 3.03389 1.16338 3.7358 1.0704C6.81704 0.66213 7.83404 0.91776 9.20844 2.44643C11.1123 4.5638 11.0538 7.10231 9.05559 9.10076C7.05878 11.0976 4.51862 11.1572 2.40513 9.25708C0.596723 7.63114 0.236675 4.83598 1.60616 3.05393L1.98991 2.55493L1.99441 3.21904C1.99788 3.74542 2.08371 3.88314 2.40759 3.88314C2.77438 3.88314 2.81627 3.74685 2.81627 2.55493V1.22672H1.48805C0.296138 1.22672 0.159843 1.26861 0.159843 1.6354C0.159843 1.93578 0.296138 2.04408 0.674168 2.04408H1.18849L0.65639 3.09378C-0.0514445 4.49085 -0.186922 5.94514 0.25057 7.4501C0.905276 9.70213 3.27174 11.4437 5.67703 11.4437C8.73988 11.4437 11.3986 8.78505 11.3986 5.7222C11.3986 1.97542 7.50363 -0.912718 4.04231 0.26755ZM14.9132 0.24589C14.7783 0.380754 14.668 0.748566 14.668 1.06325V1.6354H12.7251C10.8331 1.6354 10.7888 1.64623 11.0373 2.04408C11.259 2.39922 11.5138 2.45276 12.9804 2.45276H14.668V3.02491C14.668 3.79119 15.0099 4.08748 15.894 4.08748C16.7782 4.08748 17.1201 3.79119 17.1201 3.02491C17.1201 2.47463 17.1589 2.45276 18.1418 2.45276H19.1635V3.88314V5.31352H15.6897C12.3522 5.31352 12.2159 5.32946 12.2159 5.7222C12.2159 6.11494 12.3522 6.13088 15.6897 6.13088H19.1635V12.4654V18.8H10.5812H1.99891V14.9247C1.99891 11.2586 1.97684 11.0377 1.59022 10.8307C1.18767 10.6153 1.18154 10.6754 1.18154 14.8695C1.18154 17.9084 1.25163 19.197 1.42675 19.3721C1.77944 19.7248 19.3829 19.7248 19.7356 19.3721C20.0881 19.0196 20.0881 2.2331 19.7356 1.88061C19.6008 1.74574 18.9571 1.6354 18.3053 1.6354C17.1434 1.6354 17.1201 1.62416 17.1201 1.06325C17.1201 0.748566 17.0097 0.380754 16.8749 0.24589C16.5577 -0.0712459 15.2303 -0.0712459 14.9132 0.24589ZM16.3027 2.04408C16.3027 3.13383 16.2574 3.27012 15.894 3.27012C15.5307 3.27012 15.4854 3.13383 15.4854 2.04408C15.4854 0.954336 15.5307 0.818042 15.894 0.818042C16.2574 0.818042 16.3027 0.954336 16.3027 2.04408ZM5.40893 2.17608C5.33149 2.25333 5.26835 3.12463 5.26835 4.11221V5.90774L6.2173 6.63233C7.24902 7.42027 7.41719 7.47789 7.63849 7.11989C7.72554 6.97889 7.44192 6.58554 6.93883 6.14927C6.09286 5.41569 6.09286 5.41569 6.0381 3.79732C5.98803 2.31504 5.78737 1.79765 5.40893 2.17608ZM11.7269 8.08887C11.5402 8.5754 11.5492 8.58296 12.3181 8.58296H13.0333V9.60466V10.6264H11.6029H10.1725V12.0567V13.4871H9.15081H8.12911V12.6479C8.12911 11.9666 8.06822 11.832 7.80585 11.9327C7.62807 12.001 7.44416 12.0567 7.39716 12.0567C7.35017 12.0567 7.31175 12.3786 7.31175 12.7719V13.4871H6.29005C5.30023 13.4871 5.26835 13.4687 5.26835 12.898C5.26835 12.4805 5.14922 12.2776 4.85967 12.2018C4.46713 12.0992 4.45099 12.1957 4.45099 14.6302V17.1652H10.5812H16.7114V12.4654V7.7656H14.2812C12.2537 7.7656 11.8303 7.81914 11.7269 8.08887ZM15.894 9.60466V10.6264H14.8723H13.8506V9.60466V8.58296H14.8723H15.894V9.60466ZM13.0333 12.4654V13.4871H12.0116H10.9899V12.4654V11.4437H12.0116H13.0333V12.4654ZM15.894 12.4654V13.4871H14.8723H13.8506V12.4654V11.4437H14.8723H15.894V12.4654ZM7.31175 15.3262V16.3479H6.29005H5.26835V15.3262V14.3045H6.29005H7.31175V15.3262ZM10.1725 15.3262V16.3479H9.15081H8.12911V15.3262V14.3045H9.15081H10.1725V15.3262ZM13.0333 15.3262V16.3479H12.0116H10.9899V15.3262V14.3045H12.0116H13.0333V15.3262ZM15.894 15.3262V16.3479H14.8723H13.8506V15.3262V14.3045H14.8723H15.894V15.3262Z" fill="#7B8899"/>
</svg>
