<svg width="20" height="20" viewBox="0 0 20 20" fill="none" xmlns="http://www.w3.org/2000/svg">
<path fill-rule="evenodd" clip-rule="evenodd" d="M5.42625 0.362135C3.24784 1.1222 1.52983 2.65446 0.568875 4.69451C-0.237046 6.40551 -0.179497 9.25557 0.695952 10.995C1.52701 12.6457 2.89245 13.9777 4.58462 14.7884C5.72292 15.3335 6.20351 15.4257 7.91166 15.4257C9.63554 15.4257 10.0962 15.3356 11.2845 14.7664L12.6607 14.1072L15.6878 17.0537L18.7149 20L19.3573 19.3731L20 18.7464L16.991 15.8047L13.9823 12.8629L14.6853 11.7814C17.1778 7.9474 15.5873 2.78828 11.2791 0.732198C9.57518 -0.0810239 7.13839 -0.235236 5.42625 0.362135ZM11.0679 1.65999C13.5247 2.83274 14.8314 4.94679 14.8314 7.74942C14.8314 9.70148 14.3435 11.0071 13.0972 12.3921C11.1861 14.5153 7.5262 15.1683 4.81529 13.8698C1.05088 12.0664 -0.235872 7.50516 2.03461 4.01281C3.9086 1.13022 7.82216 0.110996 11.0679 1.65999Z" fill="#7B8899"/>
</svg>
