<svg width="20" height="26" viewBox="0 0 20 26" fill="none" xmlns="http://www.w3.org/2000/svg">
<path fill-rule="evenodd" clip-rule="evenodd" d="M6.6498 0.558366C6.34242 0.865747 6.09143 1.48888 6.09143 1.94479V2.77285L3.11283 2.85214C0.954464 2.90965 0.100722 3.03249 0.0124996 3.29883C-0.0545043 3.50124 0.154604 3.73547 0.478457 3.82006C1.06251 3.97278 1.06614 4.03671 1.06614 14.271C1.06614 24.196 1.08624 24.5882 1.6245 25.1265C2.15635 25.6583 2.55502 25.6849 10 25.6849C17.445 25.6849 17.8437 25.6583 18.3755 25.1265C18.9138 24.5882 18.9339 24.196 18.9339 14.271C18.9339 4.03671 18.9375 3.97278 19.5215 3.82006C19.8454 3.73547 20.0545 3.50124 19.9875 3.29883C19.8993 3.03249 19.0455 2.90965 16.8872 2.85214L13.9086 2.77285V1.94479C13.9086 0.378851 13.1472 0 10 0C7.58032 0 7.13363 0.0745419 6.6498 0.558366ZM12.7405 2.02408L12.829 2.79183H10.0184C7.26038 2.79183 7.20817 2.77983 7.20817 2.1405C7.20817 1.78203 7.29639 1.40094 7.40415 1.29318C7.51164 1.18541 8.7367 1.13293 10.1262 1.17676C12.652 1.25632 12.6522 1.25632 12.7405 2.02408ZM17.7507 14.1685L17.6775 24.4285H10H2.32246L2.24932 14.1685L2.17589 3.90857H10H17.8241L17.7507 14.1685ZM6.22628 7.03095C6.14671 7.23838 6.11516 10.6095 6.1562 14.5223C6.22042 20.6269 6.29049 21.6367 6.6498 21.6367C7.01134 21.6367 7.06858 20.6311 7.06858 14.2615C7.06858 8.61141 6.98705 6.85925 6.71988 6.77019C6.5278 6.70626 6.30585 6.82352 6.22628 7.03095ZM9.57648 7.03095C9.49691 7.23838 9.46536 10.6095 9.5064 14.5223C9.57062 20.6269 9.64069 21.6367 10 21.6367C10.3615 21.6367 10.4188 20.6311 10.4188 14.2615C10.4188 8.61141 10.3373 6.85925 10.0701 6.77019C9.878 6.70626 9.65605 6.82352 9.57648 7.03095ZM12.9267 7.03095C12.8471 7.23838 12.8156 10.6095 12.8566 14.5223C12.9208 20.6269 12.9909 21.6367 13.3502 21.6367C13.7117 21.6367 13.769 20.6311 13.769 14.2615C13.769 8.61141 13.6875 6.85925 13.4203 6.77019C13.2282 6.70626 13.0062 6.82352 12.9267 7.03095Z" fill="#EE5253"/>
</svg>
