<svg width="20" height="21" viewBox="0 0 20 21" fill="none" xmlns="http://www.w3.org/2000/svg">
<path fill-rule="evenodd" clip-rule="evenodd" d="M0 0.80957V0.929809V2.9372C0 4.17125 0.185476 5.67078 0.481191 6.82936L0.962619 8.71437L0.475476 10.6218C0.062619 12.2394 -0.0016667 13.1349 0.0538095 16.5146L0.119048 20.5001L2.18429 20.5687C3.32024 20.6063 5.97857 20.4182 8.09191 20.1506L11.934 19.6642L13.8398 20.1506C15.2121 20.5011 16.324 20.618 17.8131 20.5687L19.881 20.5001L19.9493 17.4049C20.0121 14.5563 19.9671 14.1713 19.3862 12.5749L18.755 10.8403L19.3776 8.35604C19.8493 6.47365 20 5.27316 20 3.40077V0.929809V0.809573H16.6667L10 0.80957H3.66667H0ZM19.0476 3.72506C19.0476 5.44983 18.8567 6.63793 18.0893 9.69057C17.5621 11.787 17.1936 13.6037 17.27 13.7275C17.5217 14.1346 17.8648 13.963 18.1288 13.2977L18.3886 12.643L18.7 13.4763C18.8833 13.967 19.0188 15.4111 19.0295 16.9882L19.0476 19.6668H17.3557C15.5788 19.6668 13.9669 19.3318 10.8719 18.3194C9.44095 17.8513 8.94095 17.7744 8.72905 17.9897C8.51833 18.2032 8.56048 18.3501 8.90548 18.6049C9.2581 18.8651 9.28452 18.963 9.02452 19.0456C8.30619 19.2742 4.28429 19.6668 2.66238 19.6668H0.952381V16.0756C0.952381 13.252 1.05524 12.0813 1.43357 10.5994L1.915 8.71437L1.43357 6.82936C1.16905 5.79269 0.952381 4.18554 0.952381 3.25792V1.57148H10H19.0476V3.72506ZM8.69048 3.40315C7.32548 3.61911 6.72214 4.68816 7.5169 5.48316C8.0531 6.01912 11.9469 6.01912 12.4831 5.48316C12.9745 4.9915 12.9576 4.35411 12.4405 3.8922C11.995 3.49435 9.86786 3.21696 8.69048 3.40315ZM11.4583 4.42864C11.7038 4.42864 11.9048 4.53578 11.9048 4.66673C11.9048 4.80554 11.1112 4.90483 10 4.90483C8.95238 4.90483 8.09524 4.80459 8.09524 4.68173C8.09524 4.41316 9.37881 4.21625 10.3274 4.33959C10.7038 4.38864 11.2129 4.42864 11.4583 4.42864Z" fill="#7B8899"/>
</svg>
