<svg width="20" height="22" viewBox="0 0 20 22" fill="none" xmlns="http://www.w3.org/2000/svg">
<path fill-rule="evenodd" clip-rule="evenodd" d="M0 10.6537V21.3077L5.49138 21.2482C10.1982 21.1974 10.9828 21.1415 10.9828 20.8562C10.9828 20.5717 10.2475 20.5147 5.93513 20.4637L0.887496 20.404V10.6457V0.887496H4.88123H8.87496V3.99373V7.09997H11.9719H15.0688L15.1336 8.81949C15.1846 10.1711 15.2696 10.539 15.5312 10.539C15.7974 10.539 15.8769 10.1419 15.9288 8.55413L15.9936 6.56925L12.7143 3.28462L9.43519 0H4.71771H0V10.6537ZM14.4218 6.15301C14.4218 6.18563 13.3735 6.21247 12.0921 6.21247H9.76246V3.83132V1.45017L12.0921 3.77186C13.3735 5.04874 14.4218 6.12039 14.4218 6.15301ZM12.6936 11.7751C11.6364 12.0986 10.2785 13.5512 9.97324 14.6852C9.44185 16.6583 10.2326 18.7346 11.9102 19.7714C13.004 20.4475 15.0246 20.4981 16.2682 19.8804L17.116 19.4592L18.3847 20.7148C19.3836 21.7031 19.7111 21.9125 19.9243 21.6993C20.1375 21.4861 19.9281 21.1586 18.9398 20.1597L17.6842 18.891L18.1054 18.0432C18.7231 16.7996 18.6725 14.779 17.9964 13.6852C16.9574 12.004 14.6552 11.1747 12.6936 11.7751ZM15.6042 12.7276C17.8837 13.6801 18.4395 16.6687 16.6667 18.4417C15.2274 19.8808 13.1724 19.8808 11.7331 18.4417C8.98945 15.6978 12.0169 11.2288 15.6042 12.7276Z" fill="#7B8899"/>
</svg>
